<svg xmlns="http://www.w3.org/2000/svg" width="18.96" height="18.96" viewBox="0 0 18.96 18.96">
    <defs>
        <linearGradient id="prefix__linear-gradient" x2="1" y1=".5" y2=".5" gradientUnits="objectBoundingBox">
            <stop offset="0" stop-color="#00f1ff"/>
            <stop offset=".231" stop-color="#00d8ff"/>
            <stop offset=".514" stop-color="#00c0ff"/>
            <stop offset=".777" stop-color="#00b2ff"/>
            <stop offset="1" stop-color="#00adff"/>
        </linearGradient>
    </defs>
    <g id="prefix__Component_3_1" data-name="Component 3 – 1" transform="translate(-.001)">
        <path id="prefix__Path_1" d="M18.961 9.48A9.48 9.48 0 1 1 9.481 0a9.48 9.48 0 0 1 9.48 9.48zm0 0" data-name="Path 1"/>
        <path id="prefix__global" d="M9.467 1.624A5.509 5.509 0 0 0 5.546 0a5.545 5.545 0 1 0 3.921 1.624zm.362 6.289H8.206a7.3 7.3 0 0 0 .379-2.043h1.845a4.859 4.859 0 0 1-.6 2.044zm-4.284 2.48a4.6 4.6 0 0 1-1.678-1.83h3.357a4.6 4.6 0 0 1-1.678 1.83zM3.574 7.914a6.607 6.607 0 0 1-.417-2.043h4.778a6.607 6.607 0 0 1-.417 2.043zM.661 5.871h1.845a7.3 7.3 0 0 0 .379 2.043H1.262a4.859 4.859 0 0 1-.6-2.043zm.6-2.693h1.624a7.3 7.3 0 0 0-.379 2.043H.661a4.859 4.859 0 0 1 .6-2.043zM5.546.7a4.6 4.6 0 0 1 1.678 1.83H3.868A4.6 4.6 0 0 1 5.546.7zm1.972 2.48a6.607 6.607 0 0 1 .417 2.043H3.157a6.607 6.607 0 0 1 .417-2.043zm2.912 2.041H8.585a7.3 7.3 0 0 0-.379-2.043h1.623a4.859 4.859 0 0 1 .6 2.043zM7.946 2.528A5.753 5.753 0 0 0 6.733.8 4.907 4.907 0 0 1 9.4 2.528zM4.358.8a5.753 5.753 0 0 0-1.213 1.728H1.693A4.907 4.907 0 0 1 4.358.8zM3.145 8.564A5.753 5.753 0 0 0 4.358 10.3a4.907 4.907 0 0 1-2.665-1.736zM6.733 10.3a5.754 5.754 0 0 0 1.213-1.736H9.4A4.907 4.907 0 0 1 6.733 10.3zm0 0" transform="translate(4 4)" style="fill:#fff"/>
    </g>
</svg>
