<svg xmlns="http://www.w3.org/2000/svg" width="18.96" height="18.96" viewBox="0 0 18.96 18.96">
    <defs>
        <linearGradient id="prefix__linear-gradient" x2="1" y1=".5" y2=".5" gradientUnits="objectBoundingBox">
            <stop offset="0" stop-color="#00f1ff"/>
            <stop offset=".231" stop-color="#00d8ff"/>
            <stop offset=".514" stop-color="#00c0ff"/>
            <stop offset=".777" stop-color="#00b2ff"/>
            <stop offset="1" stop-color="#00adff"/>
        </linearGradient>
        <style>
            .prefix__cls-2{fill:#fff}
        </style>
    </defs>
    <g id="prefix__Component_5_1" data-name="Component 5 – 1" transform="translate(-.001)">
        <path id="prefix__Path_8" d="M18.961 9.48A9.48 9.48 0 1 1 9.481 0a9.48 9.48 0 0 1 9.48 9.48zm0 0" data-name="Path 8"/>
        <g id="prefix__rocket" transform="translate(2.066 -15.825)">
            <g id="prefix__Group_7" data-name="Group 7" transform="translate(3.907 18.798)">
                <g id="prefix__Group_6" data-name="Group 6">
                    <path id="prefix__Path_11" d="M144.033 21.673l-2.3-.391-1.081-2.065-1.081 2.065-2.3.391 1.629 1.667-.339 2.306 2.089-1.035 2.088 1.035-.338-2.306zm-2.4 2.447l-.98-.486-.98.486.159-1.082-.765-.782 1.078-.183.508-.969.508.969 1.078.183-.765.782z" class="prefix__cls-2" data-name="Path 11" transform="translate(-137.274 -19.218)"/>
                </g>
            </g>
            <g id="prefix__Group_9" data-name="Group 9" transform="translate(0 22.151)">
                <g id="prefix__Group_8" data-name="Group 8">
                    <path id="prefix__Path_12" d="M4.089 139.546l.744-1.6-1.742.3-1.3-1.2-.252 1.75-1.539.855 1.586.78.341 1.735 1.232-1.266 1.755.212zm-1.255.431l-.37.381-.1-.521-.476-.234.464-.258.076-.525.389.361.523-.091-.223.481.248.469z" class="prefix__cls-2" data-name="Path 12" transform="translate(0 -137.041)"/>
                </g>
            </g>
            <g id="prefix__Group_11" data-name="Group 11" transform="translate(9.659 22.151)">
                <g id="prefix__Group_10" data-name="Group 10">
                    <path id="prefix__Path_13" d="M342.731 138.792l-.252-1.75-1.3 1.2-1.742-.3.744 1.6-.825 1.563 1.755-.212 1.232 1.268.341-1.735 1.586-.78zm-.817 1.046l-.1.521-.37-.381-.527.064.248-.469-.223-.482.523.091.389-.361.076.525.464.258z" class="prefix__cls-2" data-name="Path 13" transform="translate(-339.362 -137.042)"/>
                </g>
            </g>
            <g id="prefix__Group_13" data-name="Group 13" transform="translate(6.034 26.068)">
                <g id="prefix__Group_12" data-name="Group 12">
                    <path id="prefix__Rectangle_2" d="M0 0H0.875V6.221H0z" class="prefix__cls-2" data-name="Rectangle 2"/>
                </g>
            </g>
            <g id="prefix__Group_15" data-name="Group 15" transform="translate(3.245 26.649)">
                <g id="prefix__Group_14" data-name="Group 14">
                    <path id="prefix__Path_14" d="M114.924 295.3l-.1-.235-.8.355.1.235a12.435 12.435 0 0 1 .925 3.144l.432-.067.432-.067a13.31 13.31 0 0 0-.989-3.365z" class="prefix__cls-2" data-name="Path 14" transform="translate(-114.02 -295.064)"/>
                </g>
            </g>
            <g id="prefix__Group_17" data-name="Group 17" transform="translate(9.434 26.649)">
                <g id="prefix__Group_16" data-name="Group 16">
                    <path id="prefix__Path_15" d="M332.54 295.064l-.1.235a13.31 13.31 0 0 0-.99 3.365l.432.067.432.067a12.434 12.434 0 0 1 .925-3.144l.1-.235z" class="prefix__cls-2" data-name="Path 15" transform="translate(-331.446 -295.064)"/>
                </g>
            </g>
            <g id="prefix__Group_19" data-name="Group 19" transform="translate(7.665 26.068)">
                <g id="prefix__Group_18" data-name="Group 18">
                    <path id="prefix__Rectangle_3" d="M0 0H0.875V6.221H0z" class="prefix__cls-2" data-name="Rectangle 3"/>
                </g>
            </g>
            <g id="prefix__Group_21" data-name="Group 21" transform="translate(11.238 20.606)">
                <g id="prefix__Group_20" data-name="Group 20">
                    <path id="prefix__Rectangle_4" d="M0 0H0.853V0.853H0z" class="prefix__cls-2" data-name="Rectangle 4" transform="rotate(-45 .728 .301)"/>
                </g>
            </g>
            <g id="prefix__Group_23" data-name="Group 23" transform="translate(8.791 18.785)">
                <g id="prefix__Group_22" data-name="Group 22">
                    <path id="prefix__Rectangle_5" d="M0 0H0.853V0.853H0z" class="prefix__cls-2" data-name="Rectangle 5" transform="rotate(-45 .728 .301)"/>
                </g>
            </g>
            <g id="prefix__Group_25" data-name="Group 25" transform="translate(2.131 20.609)">
                <g id="prefix__Group_24" data-name="Group 24">
                    <path id="prefix__Rectangle_6" d="M0 0H0.853V0.853H0z" class="prefix__cls-2" data-name="Rectangle 6" transform="rotate(-45 .728 .301)"/>
                </g>
            </g>
        </g>
    </g>
</svg>
