<svg xmlns="http://www.w3.org/2000/svg" width="18.96" height="18.96" viewBox="0 0 18.96 18.96">
    <defs>
        <linearGradient id="prefix__linear-gradient" x2="1" y1=".5" y2=".5" gradientUnits="objectBoundingBox">
            <stop offset="0" stop-color="#00f1ff"/>
            <stop offset=".231" stop-color="#00d8ff"/>
            <stop offset=".514" stop-color="#00c0ff"/>
            <stop offset=".777" stop-color="#00b2ff"/>
            <stop offset="1" stop-color="#00adff"/>
        </linearGradient>
        <style>
            .prefix__cls-2{fill:#fff}
        </style>
    </defs>
    <g id="prefix__Group_54" data-name="Group 54" transform="translate(-158.001 -92)">
        <path id="prefix__Path_1" d="M18.961 9.48A9.48 9.48 0 1 1 9.481 0a9.48 9.48 0 0 1 9.48 9.48zm0 0" data-name="Path 1" transform="translate(158 92)"/>
        <g id="prefix__Group_1" data-name="Group 1" transform="translate(161.442 95.393)">
            <path id="prefix__Path_2" d="M146.12 142.923a1.886 1.886 0 0 1 1.88 1.885.555.555 0 0 0 1.111 0 3 3 0 1 0-2.995 3 .555.555 0 0 0 0-1.111 1.884 1.884 0 1 1 0-3.768zm0 0" class="prefix__cls-2" data-name="Path 2" transform="translate(-141.266 -139.954)"/>
            <path id="prefix__Path_3" d="M96.245 100.52c-1.18-1.292-2.2-2.408-2.2-4.053a3.743 3.743 0 0 1 7.486 0 .555.555 0 0 0 .556.555.556.556 0 0 0 .555-.556 4.854 4.854 0 0 0-9.708 0c0 2.077 1.267 3.463 2.491 4.8a15.785 15.785 0 0 1 1.754 2.167.556.556 0 0 0 .939-.594 16.667 16.667 0 0 0-1.873-2.319zm0 0" class="prefix__cls-2" data-name="Path 3" transform="translate(-92.934 -91.617)"/>
            <path id="prefix__Path_4" d="M235.332 253.478l-.812-.742a.545.545 0 0 0-.053-.048l-1.534-1.4a1.4 1.4 0 0 0-1.9 0l-2.4 2.193a.555.555 0 0 0 .632.9v1.336a1.4 1.4 0 0 0 1.4 1.4h2.611a1.4 1.4 0 0 0 1.4-1.4v-1.349a.555.555 0 0 0 .656-.889zM233.277 256h-2.611a.289.289 0 0 1-.288-.289v-2.321l1.4-1.284a.3.3 0 0 1 .4 0l1.381 1.263v2.347a.289.289 0 0 1-.282.284zm0 0" class="prefix__cls-2" data-name="Path 4" transform="translate(-223.435 -245.015)"/>
        </g>
    </g>
</svg>
