<svg xmlns="http://www.w3.org/2000/svg" width="18.96" height="18.96" viewBox="0 0 18.96 18.96">
    <defs>
        <linearGradient id="prefix__linear-gradient" x2="1" y1=".5" y2=".5" gradientUnits="objectBoundingBox">
            <stop offset="0" stop-color="#00f1ff"/>
            <stop offset=".231" stop-color="#00d8ff"/>
            <stop offset=".514" stop-color="#00c0ff"/>
            <stop offset=".777" stop-color="#00b2ff"/>
            <stop offset="1" stop-color="#00adff"/>
        </linearGradient>
    </defs>
    <g id="prefix__Group_55" data-name="Group 55" transform="translate(-158.001 -170)">
        <g id="prefix__Component_4_1" data-name="Component 4 – 1" transform="translate(158 170)">
            <path id="prefix__Path_6" d="M18.961 9.48A9.48 9.48 0 1 1 9.481 0a9.48 9.48 0 0 1 9.48 9.48zm0 0" data-name="Path 6"/>
        </g>
        <g id="prefix__Group_4" data-name="Group 4" transform="translate(161.439 175.712)">
            <path id="prefix__Path_7" d="M11.55 61H1.113A1.04 1.04 0 0 0 0 61.942v6.281a1.04 1.04 0 0 0 1.113.942H11.55a1.04 1.04 0 0 0 1.113-.942v-6.281A1.04 1.04 0 0 0 11.55 61zm-.154.628L6.355 65.9 1.27 61.628zM.742 68.093v-6.024l3.573 3zm.525.444l3.575-3.027L6.1 66.562a.42.42 0 0 0 .524 0l1.216-1.035 3.556 3.01zm10.654-.444l-3.556-3.01 3.556-3.011z" data-name="Path 7" transform="translate(0 -61)" style="fill:#fff"/>
        </g>
    </g>
</svg>
