<svg xmlns="http://www.w3.org/2000/svg" width="55.212" height="49.004" viewBox="0 0 55.212 49.004">
    <defs>
        <style>
            .prefix__cls-2{fill:#fff}
        </style>
    </defs>
    <g id="prefix__rank_bar_button" data-name="rank bar button" transform="translate(0 .004)">
        <path id="prefix__XMLID_50_" d="M153.311 113.972h-17.478V89.177a4.133 4.133 0 0 1 4.311-3.927H149a4.133 4.133 0 0 1 4.311 3.927z" transform="translate(-116.966 -83.861)" style="opacity:.74;fill:#fff"/>
        <path id="prefix__XMLID_1720_" d="M146.089 106.751h-20.256V80.484a5.488 5.488 0 0 1 5.7-5.233h8.856a5.488 5.488 0 0 1 5.7 5.233zm-17.478-2.551h14.7V80.484a2.813 2.813 0 0 0-2.922-2.683h-8.856a2.813 2.813 0 0 0-2.922 2.683z" class="prefix__cls-2" transform="translate(-108.355 -75.251)"/>
        <g id="prefix__XMLID_1723_" transform="translate(34.956 8.165)">
            <path id="prefix__XMLID_1724_" d="M271.923 177.585h-20.256V154.25h14.556a5.707 5.707 0 0 1 5.7 5.7h-2.778a2.925 2.925 0 0 0-2.922-2.922h-11.778v17.779h14.7v-7.47h2.778z" class="prefix__cls-2" transform="translate(-251.667 -154.25)"/>
        </g>
        <g id="prefix__XMLID_1725_" transform="translate(0 5.387)">
            <path id="prefix__XMLID_1726_" d="M20.256 160.364H0v-20.413a5.706 5.706 0 0 1 5.7-5.7h14.556v26.113zm-17.478-2.778h14.7v-20.557H5.7a2.926 2.926 0 0 0-2.922 2.922v17.635z" class="prefix__cls-2" transform="translate(0 -134.251)"/>
        </g>
        <g id="prefix__XMLID_1729_" transform="translate(24.214 10.68)">
            <path id="prefix__XMLID_1730_" d="M181.112 167.964v2.161h-6.484v-2.161h2.131v-3.827a1.666 1.666 0 0 1-.42.368 4.483 4.483 0 0 1-.638.345 4.736 4.736 0 0 1-.72.255 2.579 2.579 0 0 1-.653.1v-2.221a1.669 1.669 0 0 0 .623-.165 5.776 5.776 0 0 0 .758-.4 6.925 6.925 0 0 0 .675-.473 1.42 1.42 0 0 0 .375-.39h2.447v6.409h1.906z" transform="translate(-174.328 -161.555)" style="fill:#333336"/>
        </g>
        <g id="prefix__XMLID_1732_" transform="translate(6.391 17.036)">
            <path id="prefix__XMLID_1733_" d="M46.009 221.737a6.817 6.817 0 0 1 .105-1.261 3.189 3.189 0 0 1 1.05-1.861 6.317 6.317 0 0 1 1.1-.765q.7-.39 1.178-.645a7.728 7.728 0 0 0 .75-.45 1.826 1.826 0 0 0 .4-.353.589.589 0 0 0 .12-.368.843.843 0 0 0-.3-.675 1.285 1.285 0 0 0-.856-.255 1.941 1.941 0 0 0-1.1.308 4.562 4.562 0 0 0-.9.8l-1.531-1.771a2.99 2.99 0 0 1 .645-.525 5.587 5.587 0 0 1 .916-.458 6.375 6.375 0 0 1 1.118-.323 6.532 6.532 0 0 1 1.268-.12 3.838 3.838 0 0 1 2.484.705 2.545 2.545 0 0 1 .7 2.792 2.622 2.622 0 0 1-.413.7 3.236 3.236 0 0 1-.57.54 7.535 7.535 0 0 1-.645.428q-.225.135-.54.315t-.623.368q-.308.188-.57.375a2.512 2.512 0 0 0-.4.338h4.083v2.161z" class="prefix__cls-2" transform="translate(-46.009 -213.017)"/>
        </g>
        <g id="prefix__XMLID_1735_" transform="translate(41.726 16.603)">
            <path id="prefix__XMLID_1736_" d="M305.275 214.538a2.322 2.322 0 0 1 .752.284 2.136 2.136 0 0 1 .587.515 2.3 2.3 0 0 1 .376.713 2.765 2.765 0 0 1 .132.864 2.433 2.433 0 0 1-.251 1.115 2.4 2.4 0 0 1-.719.845 3.5 3.5 0 0 1-1.128.541 5.308 5.308 0 0 1-1.478.191 4.163 4.163 0 0 1-3.141-1.174l1.135-1.5a2.422 2.422 0 0 0 .811.561 2.8 2.8 0 0 0 1.089.191q1.491 0 1.491-1.1a1.018 1.018 0 0 0-.442-.9 2.5 2.5 0 0 0-1.392-.3h-.4v-1.517h.435a1.926 1.926 0 0 0 1.155-.3.949.949 0 0 0 .416-.8.769.769 0 0 0-.3-.66 1.324 1.324 0 0 0-.8-.224 1.918 1.918 0 0 0-.983.257 2.193 2.193 0 0 0-.745.732l-1.333-1.531a2.409 2.409 0 0 1 .554-.515 3.612 3.612 0 0 1 .779-.4 5.414 5.414 0 0 1 .937-.257 5.685 5.685 0 0 1 1.029-.092 4.674 4.674 0 0 1 1.28.165 2.968 2.968 0 0 1 .99.475 2.211 2.211 0 0 1 .633.739 2.034 2.034 0 0 1 .224.957 2.249 2.249 0 0 1-.125.752 2.3 2.3 0 0 1-.35.647 1.992 1.992 0 0 1-.534.482 1.927 1.927 0 0 1-.684.244z" class="prefix__cls-2" transform="translate(-300.406 -210.065)"/>
        </g>
        <text id="prefix__Rank" transform="translate(13 46)" style="font-size:14px;font-family:HelveticaNeue-CondensedBold,Helvetica Neue;font-weight:700;fill:#fff">
            <tspan x="0" y="0">Rank</tspan>
        </text>
    </g>
</svg>
